<svg xmlns="http://www.w3.org/2000/svg" viewBox="0 0 1600 600"><defs><linearGradient id="g"><stop stop-color="#082b4c"/><stop offset="1" stop-color="#28105a"/></linearGradient></defs><rect width="1600" height="600" fill="url(#g)"/><g fill="none" stroke="#58cfff" stroke-opacity=".34" stroke-width="7"><path d="M130 150h390a45 45 0 0145 45v120a45 45 0 01-45 45H330l-90 72 18-72H130a45 45 0 01-45-45V195a45 45 0 0145-45z"/><path d="M1080 225h300a40 40 0 0140 40v95a40 40 0 01-40 40h-95l-70 58 15-58h-150a40 40 0 01-40-40v-95a40 40 0 0140-40z"/></g></svg>
