<svg xmlns="http://www.w3.org/2000/svg" viewBox="0 0 1200 630" role="img" aria-label="ServerBloom Discord 經營知識庫預設封面"><defs><linearGradient id="g" x2="1" y2="1"><stop stop-color="#321277"/><stop offset=".55" stop-color="#101831"/><stop offset="1" stop-color="#073e5f"/></linearGradient><pattern id="p" width="70" height="70" patternUnits="userSpaceOnUse"><path d="M70 0H0v70" fill="none" stroke="#8e78ff" stroke-opacity=".08"/></pattern></defs><rect width="1200" height="630" fill="url(#g)"/><rect width="1200" height="630" fill="url(#p)"/><g fill="none" stroke="#a58bff" stroke-width="8" stroke-opacity=".55"><path d="M235 185h325a48 48 0 0148 48v150a48 48 0 01-48 48H395l-105 82 25-82h-80a48 48 0 01-48-48V233a48 48 0 0148-48z"/><path d="M700 255h250a42 42 0 0142 42v105a42 42 0 01-42 42h-88l-78 60 19-60H700a42 42 0 01-42-42V297a42 42 0 0142-42z"/></g><g fill="#77d8ff"><circle cx="330" cy="310" r="13"/><circle cx="398" cy="310" r="13"/><circle cx="466" cy="310" r="13"/></g></svg>
