<svg xmlns="http://www.w3.org/2000/svg" viewBox="0 0 1600 600"><defs><linearGradient id="b" x2="1" y2="1"><stop stop-color="#090624"/><stop offset=".5" stop-color="#213e78"/><stop offset="1" stop-color="#35125f"/></linearGradient><radialGradient id="a"><stop stop-color="#9eeeff" stop-opacity=".8"/><stop offset="1" stop-color="#735bff" stop-opacity="0"/></radialGradient></defs><rect width="1600" height="600" fill="url(#b)"/><ellipse cx="800" cy="350" rx="520" ry="330" fill="url(#a)"/><g fill="#fff"><circle cx="150" cy="100" r="3"/><circle cx="310" cy="210" r="5"/><circle cx="620" cy="80" r="4"/><circle cx="980" cy="150" r="5"/><circle cx="1320" cy="90" r="4"/><circle cx="1470" cy="260" r="6"/></g><path d="M0 520L250 345 430 470 690 230 890 455 1110 305 1320 470 1500 330 1600 400V600H0Z" fill="#060817"/><path d="M770 410L800 270 830 410 930 440 830 470 800 570 770 470 670 440Z" fill="#bca5ff" opacity=".82"/></svg>
